<?xml version="1.0" standalone="no"?><!DOCTYPE svg PUBLIC "-//W3C//DTD SVG 1.1//EN" "http://www.w3.org/Graphics/SVG/1.1/DTD/svg11.dtd"><svg t="1576916902736" class="icon" viewBox="0 0 1038 1024" version="1.1" xmlns="http://www.w3.org/2000/svg" p-id="10362" xmlns:xlink="http://www.w3.org/1999/xlink" width="243.28125" height="240"><defs><style type="text/css"></style></defs><path d="M860.598617 1022.400915l141.300989-37.845018c25.585364-6.880912 40.84936-32.999305 33.823076-59.359983L797.458977 36.104504c-6.929369-25.924564-33.677705-41.285474-58.923869-34.501476l-141.300989 37.845018c-25.633821 6.880912-40.84936 32.999305-33.823076 59.359983l238.215248 889.091409C808.604117 1013.824003 835.303995 1029.136456 860.598617 1022.400915z" p-id="10363"></path><path d="M194.264631 1020.801829C220.770681 1020.801829 242.285647 999.480693 242.285647 972.199329L242.285647 51.756157c0-26.84525-21.854165-48.554044-48.021015-48.554044L48.021015 3.202114C21.514965 3.202114 0 24.474793 0 51.756157l0 920.443172c0 26.84525 21.854165 48.554044 48.021015 48.554044L194.264631 1020.753372z" p-id="10364"></path><path d="M485.007407 1020.801829c26.50605 0 48.021015-21.27268 48.021015-48.554044L533.028423 51.756157c0-26.84525-21.854165-48.554044-48.021015-48.554044L338.763791 3.202114C312.257741 3.202114 290.742776 24.474793 290.742776 51.756157l0 920.443172c0 26.84525 21.854165 48.554044 48.021015 48.554044L485.007407 1020.753372z" p-id="10365"></path></svg>