<?xml version="1.0" standalone="no"?><!DOCTYPE svg PUBLIC "-//W3C//DTD SVG 1.1//EN" "http://www.w3.org/Graphics/SVG/1.1/DTD/svg11.dtd"><svg t="1576917000680" class="icon" viewBox="0 0 1024 1024" version="1.1" xmlns="http://www.w3.org/2000/svg" p-id="13085" xmlns:xlink="http://www.w3.org/1999/xlink" width="240" height="240"><defs><style type="text/css"></style></defs><path d="M628 952.9H396c-15.7 0-28.4-12.7-28.4-28.4V99.6c0-15.7 12.7-28.4 28.4-28.4h232c15.7 0 28.4 12.7 28.4 28.4v824.9c0 15.7-12.7 28.4-28.4 28.4zM260.4 952.9h-232C12.7 952.9 0 940.2 0 924.4V301c0-15.7 12.7-28.4 28.4-28.4h231.9c15.7 0 28.4 12.7 28.4 28.4v623.4c0.1 15.8-12.6 28.5-28.3 28.5zM995.6 952.9h-232c-15.7 0-28.4-12.7-28.4-28.4V554.7c0-15.7 12.7-28.4 28.4-28.4h231.9c15.7 0 28.4 12.7 28.4 28.4v369.8c0.1 15.7-12.6 28.4-28.3 28.4z" p-id="13086"></path></svg>