<?xml version="1.0" standalone="no"?><!DOCTYPE svg PUBLIC "-//W3C//DTD SVG 1.1//EN" "http://www.w3.org/Graphics/SVG/1.1/DTD/svg11.dtd"><svg t="1576916957455" class="icon" viewBox="0 0 1024 1024" version="1.1" xmlns="http://www.w3.org/2000/svg" p-id="11695" xmlns:xlink="http://www.w3.org/1999/xlink" width="240" height="240"><defs><style type="text/css"></style></defs><path d="M0 0v1024h1024V0z m512 124.121212a192.387879 192.387879 0 1 1-192.387879 192.387879A193.318788 193.318788 0 0 1 512 124.121212z m322.715152 735.418182a124.121212 124.121212 0 0 1-68.266667 37.236364 116.363636 116.363636 0 0 1-34.133333 3.10303H288.581818a144.290909 144.290909 0 0 1-71.369697-18.618182 124.121212 124.121212 0 0 1-58.957576-86.884848 350.642424 350.642424 0 0 1 0-80.678788 421.701818 421.701818 0 0 1 21.721213-108.606061 291.374545 291.374545 0 0 1 43.442424-80.678788 138.084848 138.084848 0 0 1 93.090909-43.442424 74.162424 74.162424 0 0 1 27.927273 6.206061c15.515152 9.309091 31.030303 21.721212 49.648484 31.030303a212.867879 212.867879 0 0 0 114.812122 31.030303 223.728485 223.728485 0 0 0 124.121212-37.236364 258.792727 258.792727 0 0 0 37.236363-24.824242 73.852121 73.852121 0 0 1 37.236364-9.309091 146.152727 146.152727 0 0 1 80.678788 34.133333 181.837576 181.837576 0 0 1 40.339394 58.957576 491.209697 491.209697 0 0 1 27.927273 96.193939 379.190303 379.190303 0 0 1 6.20606 102.4 124.121212 124.121212 0 0 1-27.927272 89.987879z" p-id="11696"></path></svg>