<?xml version="1.0" standalone="no"?><!DOCTYPE svg PUBLIC "-//W3C//DTD SVG 1.1//EN" "http://www.w3.org/Graphics/SVG/1.1/DTD/svg11.dtd"><svg t="1576917473379" class="icon" viewBox="0 0 1024 1024" version="1.1" xmlns="http://www.w3.org/2000/svg" p-id="10150" xmlns:xlink="http://www.w3.org/1999/xlink" width="240" height="240"><defs><style type="text/css"></style></defs><path d="M204.8 0h614.4a204.8 204.8 0 0 1 204.8 204.8v614.4a204.8 204.8 0 0 1-204.8 204.8H204.8a204.8 204.8 0 0 1-204.8-204.8V204.8a204.8 204.8 0 0 1 204.8-204.8z m265.9328 310.9888v269.312h69.9392c-7.8336 106.1888-46.336 181.8624-113.92 226.3552l44.032 71.0656c87.9616-61.696 136.704-160.768 145.3056-297.4208H665.6v203.776c0 52.224 22.016 78.848 65.9968 78.848h64.4096c24.3712 0 42.4448-7.0656 54.9888-21.0944 12.5952-14.848 21.1968-60.928 26.7264-138.24l-72.2944-21.8112c-1.536 51.5072-3.9424 82.7392-7.8336 93.696-3.1744 9.3696-8.704 14.0288-14.9504 14.0288h-26.7264c-10.1888 0-14.8992-7.7824-14.8992-21.8624v-187.3408h82.4832v-269.312h-82.4832c22.784-40.6016 43.2128-86.6304 62.0544-136.6016l-78.5408-28.1088a1148.7744 1148.7744 0 0 1-67.584 164.7104h-83.2512l50.2784-24.9856c-22.016-48.384-44.032-92.1088-66.816-131.1232l-65.9968 31.232c22.016 36.6592 42.4448 78.0288 61.2864 124.928H470.7328z m-303.2576 42.1376v78.848h97.4336c-25.088 74.1888-65.1776 140.544-118.6304 199.8336l36.9152 95.232a818.5344 818.5344 0 0 0 89.6-163.1232v303.616h78.5408v-312.2176a2370.048 2370.048 0 0 1 60.5184 99.9424l46.336-69.4784a2038.9376 2038.9376 0 0 0-106.8544-117.8624v-35.9424h88.7808v-78.848H351.3344V253.2352a1399.3984 1399.3984 0 0 0 94.2592-21.8624l-29.0304-74.9568c-73.8816 22.6304-157.952 37.4784-251.392 45.312l16.4864 74.9056c31.3856-3.072 61.2864-7.0144 91.136-10.9056v87.3984H167.424z m581.376 155.3408h-202.7008V382.8224h202.752V508.416z" p-id="10151"></path></svg>